TITLE ""
FILE "2Q_t_0201-0217.mp3" MP3
  TRACK 01 AUDIO
    TITLE "2Q_t_0201-0217_01"
    INDEX 01 00:00:00
  TRACK 02 AUDIO
    TITLE "2Q_t_0201-0217_02"
    INDEX 01 00:00:08
  TRACK 03 AUDIO
    TITLE "2Q_t_0201-0217_03"
    INDEX 01 00:01:45
  TRACK 04 AUDIO
    TITLE "2Q_t_0201-0217_04"
    INDEX 01 00:02:19
  TRACK 05 AUDIO
    TITLE "2Q_t_0201-0217_05"
    INDEX 01 00:03:26
  TRACK 06 AUDIO
    TITLE "2Q_t_0201-0217_06"
    INDEX 01 00:03:69
  TRACK 07 AUDIO
    TITLE "2Q_t_0201-0217_07"
    INDEX 01 00:05:06
  TRACK 08 AUDIO
    TITLE "2Q_t_0201-0217_08"
    INDEX 01 00:05:53
  TRACK 09 AUDIO
    TITLE "2Q_t_0201-0217_09"
    INDEX 01 00:06:70
  TRACK 10 AUDIO
    TITLE "2Q_t_0201-0217_10"
    INDEX 01 00:07:38
  TRACK 11 AUDIO
    TITLE "2Q_t_0201-0217_11"
    INDEX 01 00:08:55
  TRACK 12 AUDIO
    TITLE "2Q_t_0201-0217_12"
    INDEX 01 00:09:31
  TRACK 13 AUDIO
    TITLE "2Q_t_0201-0217_13"
    INDEX 01 00:10:46
  TRACK 14 AUDIO
    TITLE "2Q_t_0201-0217_14"
    INDEX 01 00:11:14
  TRACK 15 AUDIO
    TITLE "2Q_t_0201-0217_15"
    INDEX 01 00:12:29
  TRACK 16 AUDIO
    TITLE "2Q_t_0201-0217_16"
    INDEX 01 00:12:74
  TRACK 17 AUDIO
    TITLE "2Q_t_0201-0217_17"
    INDEX 01 00:16:33
  TRACK 18 AUDIO
    TITLE "2Q_t_0201-0217_18"
    INDEX 01 00:16:72
  TRACK 19 AUDIO
    TITLE "2Q_t_0201-0217_19"
    INDEX 01 00:18:20
  TRACK 20 AUDIO
    TITLE "2Q_t_0201-0217_20"
    INDEX 01 00:18:63
  TRACK 21 AUDIO
    TITLE "2Q_t_0201-0217_21"
    INDEX 01 00:21:61
  TRACK 22 AUDIO
    TITLE "2Q_t_0201-0217_22"
    INDEX 01 00:22:31
  TRACK 23 AUDIO
    TITLE "2Q_t_0201-0217_23"
    INDEX 01 00:23:54
  TRACK 24 AUDIO
    TITLE "2Q_t_0201-0217_24"
    INDEX 01 00:24:26
  TRACK 25 AUDIO
    TITLE "2Q_t_0201-0217_25"
    INDEX 01 00:25:59
  TRACK 26 AUDIO
    TITLE "2Q_t_0201-0217_26"
    INDEX 01 00:26:29
  TRACK 27 AUDIO
    TITLE "2Q_t_0201-0217_27"
    INDEX 01 00:27:64
  TRACK 28 AUDIO
    TITLE "2Q_t_0201-0217_28"
    INDEX 01 00:28:34
  TRACK 29 AUDIO
    TITLE "2Q_t_0201-0217_29"
    INDEX 01 00:31:23
  TRACK 30 AUDIO
    TITLE "2Q_t_0201-0217_30"
    INDEX 01 00:31:66
  TRACK 31 AUDIO
    TITLE "2Q_t_0201-0217_31"
    INDEX 01 00:33:14
  TRACK 32 AUDIO
    TITLE "2Q_t_0201-0217_32"
    INDEX 01 00:33:59
  TRACK 33 AUDIO
    TITLE "2Q_t_0201-0217_33"
    INDEX 01 00:36:36
  TRACK 34 AUDIO
    TITLE "2Q_t_0201-0217_34"
    INDEX 01 00:37:04
  TRACK 35 AUDIO
    TITLE "2Q_t_0201-0217_35"
    INDEX 01 00:38:17
  TRACK 36 AUDIO
    TITLE "2Q_t_0201-0217_36"
    INDEX 01 00:38:62
  TRACK 37 AUDIO
    TITLE "2Q_t_0201-0217_37"
    INDEX 01 00:41:62
  TRACK 38 AUDIO
    TITLE "2Q_t_0201-0217_38"
    INDEX 01 00:42:32
  TRACK 39 AUDIO
    TITLE "2Q_t_0201-0217_39"
    INDEX 01 00:43:41
  TRACK 40 AUDIO
    TITLE "2Q_t_0201-0217_40"
    INDEX 01 00:44:12
  TRACK 41 AUDIO
    TITLE "2Q_t_0201-0217_41"
    INDEX 01 00:46:12
  TRACK 42 AUDIO
    TITLE "2Q_t_0201-0217_42"
    INDEX 01 00:46:57
  TRACK 43 AUDIO
    TITLE "2Q_t_0201-0217_43"
    INDEX 01 00:47:55
  TRACK 44 AUDIO
    TITLE "2Q_t_0201-0217_44"
    INDEX 01 00:48:29
  TRACK 45 AUDIO
    TITLE "2Q_t_0201-0217_45"
    INDEX 01 00:52:27
  TRACK 46 AUDIO
    TITLE "2Q_t_0201-0217_46"
    INDEX 01 00:52:70
  TRACK 47 AUDIO
    TITLE "2Q_t_0201-0217_47"
    INDEX 01 00:54:20
  TRACK 48 AUDIO
    TITLE "2Q_t_0201-0217_48"
    INDEX 01 00:55:03
  TRACK 49 AUDIO
    TITLE "2Q_t_0201-0217_49"
    INDEX 01 00:56:25
  TRACK 50 AUDIO
    TITLE "2Q_t_0201-0217_50"
    INDEX 01 00:56:68
  TRACK 51 AUDIO
    TITLE "2Q_t_0201-0217_51"
    INDEX 01 00:58:12
  TRACK 52 AUDIO
    TITLE "2Q_t_0201-0217_52"
    INDEX 01 00:58:57
  TRACK 53 AUDIO
    TITLE "2Q_t_0201-0217_53"
    INDEX 01 01:01:41
  TRACK 54 AUDIO
    TITLE "2Q_t_0201-0217_54"
    INDEX 01 01:02:09
  TRACK 55 AUDIO
    TITLE "2Q_t_0201-0217_55"
    INDEX 01 01:03:05
  TRACK 56 AUDIO
    TITLE "2Q_t_0201-0217_56"
    INDEX 01 01:03:54
  TRACK 57 AUDIO
    TITLE "2Q_t_0201-0217_57"
    INDEX 01 01:06:60
  TRACK 58 AUDIO
    TITLE "2Q_t_0201-0217_58"
    INDEX 01 01:07:30
  TRACK 59 AUDIO
    TITLE "2Q_t_0201-0217_59"
    INDEX 01 01:08:47
  TRACK 60 AUDIO
    TITLE "2Q_t_0201-0217_60"
    INDEX 01 01:09:31
  TRACK 61 AUDIO
    TITLE "2Q_t_0201-0217_61"
    INDEX 01 01:10:62
  TRACK 62 AUDIO
    TITLE "2Q_t_0201-0217_62"
    INDEX 01 01:11:32
  TRACK 63 AUDIO
    TITLE "2Q_t_0201-0217_63"
    INDEX 01 01:12:49
  TRACK 64 AUDIO
    TITLE "2Q_t_0201-0217_64"
    INDEX 01 01:13:33
  TRACK 65 AUDIO
    TITLE "2Q_t_0201-0217_65"
    INDEX 01 01:16:17
  TRACK 66 AUDIO
    TITLE "2Q_t_0201-0217_66"
    INDEX 01 01:16:60
  TRACK 67 AUDIO
    TITLE "2Q_t_0201-0217_67"
    INDEX 01 01:18:03
  TRACK 68 AUDIO
    TITLE "2Q_t_0201-0217_68"
    INDEX 01 01:18:52
  TRACK 69 AUDIO
    TITLE "2Q_t_0201-0217_69"
    INDEX 01 01:20:52
  TRACK 70 AUDIO
    TITLE "2Q_t_0201-0217_70"
    INDEX 01 01:21:22
  TRACK 71 AUDIO
    TITLE "2Q_t_0201-0217_71"
    INDEX 01 01:22:34
  TRACK 72 AUDIO
    TITLE "2Q_t_0201-0217_72"
    INDEX 01 01:23:04
  TRACK 73 AUDIO
    TITLE "2Q_t_0201-0217_73"
    INDEX 01 01:24:29
